<svg xmlns="http://www.w3.org/2000/svg" xmlns:xlink="http://www.w3.org/1999/xlink" width="108" height="108" viewBox="0 0 108 108">
  <defs>
    <filter id="Fondo" x="0" y="0" width="108" height="108" filterUnits="userSpaceOnUse">
      <feOffset dy="3" input="SourceAlpha"/>
      <feGaussianBlur stdDeviation="3" result="blur"/>
      <feFlood flood-opacity="0.161"/>
      <feComposite operator="in" in2="blur"/>
      <feComposite in="SourceGraphic"/>
    </filter>
  </defs>
  <g id="Grupo_1145305" data-name="Grupo 1145305" transform="translate(-186 -2851)">
    <g id="Grupo_1145189" data-name="Grupo 1145189" transform="translate(0 -2954)">
      <g transform="matrix(1, 0, 0, 1, 186, 5805)" filter="url(#Fondo)">
        <g id="Fondo-2" data-name="Fondo" transform="translate(9 6)" fill="#fef8e7" stroke="#bca724" stroke-width="3">
          <circle cx="45" cy="45" r="45" stroke="none"/>
          <circle cx="45" cy="45" r="43.5" fill="none"/>
        </g>
      </g>
    </g>
    <g id="_002-calculator" data-name="002-calculator" transform="translate(146.354 2872.028)">
      <path id="Trazado_983120" data-name="Trazado 983120" d="M119.516,65.689H82.105a1.873,1.873,0,0,1-1.873-1.873V9.373A1.873,1.873,0,0,1,82.105,7.5h37.411a1.873,1.873,0,0,1,1.873,1.873V63.815a1.873,1.873,0,0,1-1.873,1.873Z" transform="translate(-6.622 -6.622)" fill="#8f818f"/>
      <path id="Trazado_983121" data-name="Trazado 983121" d="M395.984,7.5h-2.6a1.892,1.892,0,0,1,1.892,1.892V63.8a1.892,1.892,0,0,1-1.892,1.892h2.6a1.892,1.892,0,0,0,1.892-1.892V9.392A1.892,1.892,0,0,0,395.984,7.5Z" transform="translate(-283.108 -6.622)" fill="#786e79"/>
      <path id="Trazado_983122" data-name="Trazado 983122" d="M0,0H11.827V33.115H0Z" transform="translate(110.747 4.899) rotate(90)" fill="#97e4f9"/>
      <path id="Trazado_983123" data-name="Trazado 983123" d="M145.327,41.846v8.279a1.183,1.183,0,0,1-1.183,1.183H114.577v2.365h33.115V41.846Z" transform="translate(-36.946 -36.947)" fill="#0acefa"/>
      <path id="Trazado_983124" data-name="Trazado 983124" d="M114.577,196.264V191.51a1.171,1.171,0,0,1,1.171-1.171H120.5a1.171,1.171,0,0,1,1.171,1.171v4.755a1.171,1.171,0,0,1-1.171,1.171h-4.755a1.171,1.171,0,0,1-1.171-1.171Z" transform="translate(-36.946 -168.054)" fill="#d6e4ea"/>
      <path id="Trazado_983125" data-name="Trazado 983125" d="M149.031,190.339H146.9a1.183,1.183,0,0,1,1.183,1.183v4.731a1.183,1.183,0,0,1-1.183,1.183h2.129a1.183,1.183,0,0,0,1.183-1.183v-4.731A1.183,1.183,0,0,0,149.031,190.339Z" transform="translate(-65.486 -168.054)" fill="#c2d0da"/>
      <path id="Trazado_983126" data-name="Trazado 983126" d="M225.695,196.264V191.51a1.171,1.171,0,0,1,1.171-1.171h4.755a1.171,1.171,0,0,1,1.171,1.171v4.755a1.171,1.171,0,0,1-1.171,1.171h-4.755A1.171,1.171,0,0,1,225.695,196.264Z" transform="translate(-135.054 -168.054)" fill="#d6e4ea"/>
      <path id="Trazado_983127" data-name="Trazado 983127" d="M260.149,190.339H258.02a1.183,1.183,0,0,1,1.183,1.183v4.731a1.183,1.183,0,0,1-1.183,1.183h2.129a1.183,1.183,0,0,0,1.183-1.183v-4.731A1.183,1.183,0,0,0,260.149,190.339Z" transform="translate(-163.595 -168.054)" fill="#c2d0da"/>
      <path id="Trazado_983128" data-name="Trazado 983128" d="M114.577,300.311v-4.755a1.171,1.171,0,0,1,1.171-1.171H120.5a1.171,1.171,0,0,1,1.171,1.171v4.755a1.171,1.171,0,0,1-1.171,1.171h-4.755a1.171,1.171,0,0,1-1.171-1.171Z" transform="translate(-36.946 -259.919)" fill="#d6e4ea"/>
      <path id="Trazado_983129" data-name="Trazado 983129" d="M149.031,294.386H146.9a1.183,1.183,0,0,1,1.183,1.183V300.3a1.183,1.183,0,0,1-1.183,1.183h2.129a1.183,1.183,0,0,0,1.183-1.183v-4.731A1.183,1.183,0,0,0,149.031,294.386Z" transform="translate(-65.486 -259.919)" fill="#c2d0da"/>
      <path id="Trazado_983130" data-name="Trazado 983130" d="M225.695,300.311v-4.755a1.171,1.171,0,0,1,1.171-1.171h4.755a1.171,1.171,0,0,1,1.171,1.171v4.755a1.171,1.171,0,0,1-1.171,1.171h-4.755A1.171,1.171,0,0,1,225.695,300.311Z" transform="translate(-135.054 -259.919)" fill="#d6e4ea"/>
      <path id="Trazado_983131" data-name="Trazado 983131" d="M260.149,294.386H258.02a1.183,1.183,0,0,1,1.183,1.183V300.3a1.183,1.183,0,0,1-1.183,1.183h2.129a1.183,1.183,0,0,0,1.183-1.183v-4.731A1.183,1.183,0,0,0,260.149,294.386Z" transform="translate(-163.595 -259.919)" fill="#c2d0da"/>
      <path id="Trazado_983132" data-name="Trazado 983132" d="M114.577,404.358V399.6a1.171,1.171,0,0,1,1.171-1.171H120.5a1.171,1.171,0,0,1,1.171,1.171v4.755a1.171,1.171,0,0,1-1.171,1.171h-4.755a1.171,1.171,0,0,1-1.171-1.171Z" transform="translate(-36.946 -351.785)" fill="#d6e4ea"/>
      <path id="Trazado_983133" data-name="Trazado 983133" d="M149.031,398.433H146.9a1.183,1.183,0,0,1,1.183,1.183v4.731a1.183,1.183,0,0,1-1.183,1.183h2.129a1.183,1.183,0,0,0,1.183-1.183v-4.731A1.183,1.183,0,0,0,149.031,398.433Z" transform="translate(-65.486 -351.785)" fill="#c2d0da"/>
      <path id="Trazado_983134" data-name="Trazado 983134" d="M225.695,404.358V399.6a1.171,1.171,0,0,1,1.171-1.171h4.755a1.171,1.171,0,0,1,1.171,1.171v4.755a1.171,1.171,0,0,1-1.171,1.171h-4.755a1.171,1.171,0,0,1-1.171-1.171Z" transform="translate(-135.054 -351.785)" fill="#d6e4ea"/>
      <path id="Trazado_983135" data-name="Trazado 983135" d="M260.149,398.433H258.02a1.183,1.183,0,0,1,1.183,1.183v4.731a1.183,1.183,0,0,1-1.183,1.183h2.129a1.183,1.183,0,0,0,1.183-1.183v-4.731A1.183,1.183,0,0,0,260.149,398.433Z" transform="translate(-163.595 -351.785)" fill="#c2d0da"/>
      <path id="Trazado_983136" data-name="Trazado 983136" d="M336.813,196.264V191.51a1.171,1.171,0,0,1,1.171-1.171h4.755a1.171,1.171,0,0,1,1.171,1.171v4.755a1.171,1.171,0,0,1-1.171,1.171h-4.755A1.171,1.171,0,0,1,336.813,196.264Z" transform="translate(-233.162 -168.054)" fill="#d6e4ea"/>
      <path id="Trazado_983137" data-name="Trazado 983137" d="M371.267,190.339h-2.129a1.183,1.183,0,0,1,1.183,1.183v4.731a1.183,1.183,0,0,1-1.183,1.183h2.129a1.183,1.183,0,0,0,1.183-1.183v-4.731A1.183,1.183,0,0,0,371.267,190.339Z" transform="translate(-261.703 -168.054)" fill="#c2d0da"/>
      <path id="Trazado_983138" data-name="Trazado 983138" d="M336.813,312.493V295.557a1.171,1.171,0,0,1,1.171-1.171h4.755a1.171,1.171,0,0,1,1.171,1.171v16.936a1.171,1.171,0,0,1-1.171,1.171h-4.755a1.171,1.171,0,0,1-1.171-1.171Z" transform="translate(-233.162 -259.919)" fill="#fba65c"/>
      <path id="Trazado_983139" data-name="Trazado 983139" d="M371.267,294.386h-2.129a1.183,1.183,0,0,1,1.183,1.183v16.912a1.183,1.183,0,0,1-1.183,1.183h2.129a1.183,1.183,0,0,0,1.183-1.183V295.569A1.183,1.183,0,0,0,371.267,294.386Z" transform="translate(-261.703 -259.919)" fill="#fb9538"/>
      <path id="Trazado_983140" data-name="Trazado 983140" d="M141.949,35.224a.878.878,0,0,0-.878-.878H107.955a.878.878,0,0,0-.878.878V47.051a.878.878,0,0,0,.878.878h33.115a.878.878,0,0,0,.878-.878Zm-1.756,10.949H108.833V36.1h31.359Z" transform="translate(-30.324 -30.325)"/>
      <path id="Trazado_983141" data-name="Trazado 983141" d="M107.077,189.642a2.051,2.051,0,0,0,2.049,2.049h4.755a2.051,2.051,0,0,0,2.049-2.049v-4.755a2.051,2.051,0,0,0-2.049-2.049h-4.755a2.051,2.051,0,0,0-2.049,2.049Zm1.756-4.755a.293.293,0,0,1,.293-.293h4.755a.293.293,0,0,1,.293.293v4.755a.293.293,0,0,1-.293.293h-4.755a.293.293,0,0,1-.293-.293Z" transform="translate(-30.324 -161.432)"/>
      <path id="Trazado_983142" data-name="Trazado 983142" d="M227.048,184.888A2.051,2.051,0,0,0,225,182.839h-4.754a2.051,2.051,0,0,0-2.049,2.049v4.755a2.051,2.051,0,0,0,2.049,2.049H225a2.051,2.051,0,0,0,2.049-2.049Zm-1.756,4.755a.293.293,0,0,1-.293.293h-4.754a.293.293,0,0,1-.293-.293v-4.755a.293.293,0,0,1,.293-.293H225a.293.293,0,0,1,.293.293Z" transform="translate(-128.433 -161.432)"/>
      <path id="Trazado_983143" data-name="Trazado 983143" d="M107.077,293.689a2.051,2.051,0,0,0,2.049,2.049h4.755a2.051,2.051,0,0,0,2.049-2.049v-4.755a2.051,2.051,0,0,0-2.049-2.049h-4.755a2.051,2.051,0,0,0-2.049,2.049Zm1.756-4.755a.293.293,0,0,1,.293-.293h4.755a.293.293,0,0,1,.293.293v4.755a.293.293,0,0,1-.293.293h-4.755a.293.293,0,0,1-.293-.293Z" transform="translate(-30.324 -253.298)"/>
      <path id="Trazado_983144" data-name="Trazado 983144" d="M227.048,288.935A2.051,2.051,0,0,0,225,286.886h-4.754a2.051,2.051,0,0,0-2.049,2.049v4.755a2.051,2.051,0,0,0,2.049,2.049H225a2.051,2.051,0,0,0,2.049-2.049Zm-1.756,4.755a.293.293,0,0,1-.293.293h-4.754a.293.293,0,0,1-.293-.293v-4.755a.293.293,0,0,1,.293-.293H225a.293.293,0,0,1,.293.293Z" transform="translate(-128.433 -253.298)"/>
      <path id="Trazado_983145" data-name="Trazado 983145" d="M107.077,397.736a2.051,2.051,0,0,0,2.049,2.049h4.755a2.051,2.051,0,0,0,2.049-2.049v-4.754a2.051,2.051,0,0,0-2.049-2.049h-4.755a2.051,2.051,0,0,0-2.049,2.049Zm1.756-4.754a.293.293,0,0,1,.293-.293h4.755a.293.293,0,0,1,.293.293v4.754a.293.293,0,0,1-.293.293h-4.755a.293.293,0,0,1-.293-.293Z" transform="translate(-30.324 -345.163)"/>
      <path id="Trazado_983146" data-name="Trazado 983146" d="M225,390.933h-4.754a2.051,2.051,0,0,0-2.049,2.049v4.754a2.051,2.051,0,0,0,2.049,2.049H225a2.051,2.051,0,0,0,2.049-2.049v-4.754A2.051,2.051,0,0,0,225,390.933Zm.293,6.8a.293.293,0,0,1-.293.293h-4.754a.293.293,0,0,1-.293-.293v-4.754a.293.293,0,0,1,.293-.293H225a.293.293,0,0,1,.293.293Z" transform="translate(-128.433 -345.163)"/>
      <path id="Trazado_983147" data-name="Trazado 983147" d="M338.165,184.888a2.051,2.051,0,0,0-2.049-2.049h-4.755a2.051,2.051,0,0,0-2.049,2.049v4.755a2.051,2.051,0,0,0,2.049,2.049h4.755a2.051,2.051,0,0,0,2.049-2.049Zm-1.756,4.755a.293.293,0,0,1-.293.293h-4.755a.293.293,0,0,1-.293-.293v-4.755a.293.293,0,0,1,.293-.293h4.755a.293.293,0,0,1,.293.293Z" transform="translate(-226.541 -161.432)"/>
      <path id="Trazado_983148" data-name="Trazado 983148" d="M330.191,295.4a.878.878,0,0,0-.878.878v9.58a2.063,2.063,0,0,0,2.061,2.061H336.1a2.063,2.063,0,0,0,2.061-2.061V288.947a2.063,2.063,0,0,0-2.061-2.061h-4.731a2.063,2.063,0,0,0-2.061,2.061v3.193a.878.878,0,0,0,1.756,0v-3.193a.3.3,0,0,1,.3-.3H336.1a.3.3,0,0,1,.3.3v16.913a.3.3,0,0,1-.3.3h-4.731a.3.3,0,0,1-.3-.3v-9.58A.878.878,0,0,0,330.191,295.4Z" transform="translate(-226.541 -253.298)"/>
      <path id="Trazado_983149" data-name="Trazado 983149" d="M112.875,0H75.5a2.774,2.774,0,0,0-2.77,2.77V33.284a.878.878,0,0,0,1.756,0V2.77A1.015,1.015,0,0,1,75.5,1.756h37.373A1.015,1.015,0,0,1,113.89,2.77V17.2a.878.878,0,0,0,1.756,0V2.77A2.774,2.774,0,0,0,112.875,0Z" transform="translate(0)"/>
      <path id="Trazado_983150" data-name="Trazado 983150" d="M114.768,174.758a.878.878,0,0,0-.878.878v35.836a1.015,1.015,0,0,1-1.014,1.014H75.5a1.015,1.015,0,0,1-1.014-1.014V191.721a.878.878,0,1,0-1.756,0v19.751a2.774,2.774,0,0,0,2.77,2.77h37.373a2.774,2.774,0,0,0,2.77-2.77V175.636A.878.878,0,0,0,114.768,174.758Z" transform="translate(0 -154.297)"/>
    </g>
  </g>
</svg>
