<svg xmlns="http://www.w3.org/2000/svg" xmlns:xlink="http://www.w3.org/1999/xlink" width="108" height="108" viewBox="0 0 108 108">
  <defs>
    <filter id="Fondo" x="0" y="0" width="108" height="108" filterUnits="userSpaceOnUse">
      <feOffset dy="3" input="SourceAlpha"/>
      <feGaussianBlur stdDeviation="3" result="blur"/>
      <feFlood flood-opacity="0.161"/>
      <feComposite operator="in" in2="blur"/>
      <feComposite in="SourceGraphic"/>
    </filter>
  </defs>
  <g id="Icono" transform="translate(8.5 -689)">
    <g transform="matrix(1, 0, 0, 1, -8.5, 689)" filter="url(#Fondo)">
      <g id="Fondo-2" data-name="Fondo" transform="translate(9 6)" fill="#e6d567" stroke="#bca724" stroke-width="3">
        <circle cx="45" cy="45" r="45" stroke="none"/>
        <circle cx="45" cy="45" r="43.5" fill="none"/>
      </g>
    </g>
    <path id="divide-2" d="M8.384,3A5.424,5.424,0,0,0,3,8.384v37.69a5.424,5.424,0,0,0,5.384,5.384h37.69a5.424,5.424,0,0,0,5.384-5.384V8.384A5.424,5.424,0,0,0,46.074,3Zm0,5.384h37.69v37.69H8.384Zm18.845,5.384a4.038,4.038,0,1,0,4.038,4.038A4.038,4.038,0,0,0,27.229,13.769ZM13.769,24.537v5.384H40.69V24.537Zm13.461,8.076a4.038,4.038,0,1,0,4.038,4.038A4.038,4.038,0,0,0,27.229,32.613Z" transform="translate(19.458 712.871)" fill="#7b277e"/>
  </g>
</svg>
