<svg xmlns="http://www.w3.org/2000/svg" xmlns:xlink="http://www.w3.org/1999/xlink" width="148" height="148" viewBox="0 0 148 148">
  <defs>
    <filter id="Elipse_11495" x="0" y="0" width="148" height="148" filterUnits="userSpaceOnUse">
      <feOffset dy="3" input="SourceAlpha"/>
      <feGaussianBlur stdDeviation="3" result="blur"/>
      <feFlood flood-opacity="0.161"/>
      <feComposite operator="in" in2="blur"/>
      <feComposite in="SourceGraphic"/>
    </filter>
  </defs>
  <g id="Grupo_1145307" data-name="Grupo 1145307" transform="translate(-314 -4673)">
    <g id="Grupo_1145249" data-name="Grupo 1145249" transform="translate(115.899 -6103)">
      <g transform="matrix(1, 0, 0, 1, 198.1, 10776)" filter="url(#Elipse_11495)">
        <g id="Elipse_11495-2" data-name="Elipse 11495" transform="translate(9 6)" fill="#ecf4fa" stroke="#7b277e" stroke-width="3">
          <circle cx="65" cy="65" r="65" stroke="none"/>
          <circle cx="65" cy="65" r="63.5" fill="none"/>
        </g>
      </g>
    </g>
    <g id="_019-maths" data-name="019-maths" transform="translate(326.015 4707.111)">
      <path id="Trazado_983151" data-name="Trazado 983151" d="M109.5,35.785h48.909v67.541H109.5Z" transform="translate(-68.624 -30.628)" fill="#b6c1cc"/>
      <path id="Trazado_983152" data-name="Trazado 983152" d="M77.174,7.5h48.909V75.041H77.174Z" transform="translate(-40.957 -6.419)" fill="#e5ecf1"/>
      <path id="Trazado_983153" data-name="Trazado 983153" d="M97.03,373.831H42.59l-5.823-4.367L42.59,365.1H97.03a2.911,2.911,0,0,1,2.911,2.911v2.911a2.911,2.911,0,0,1-2.911,2.911Z" transform="translate(-6.373 -312.487)" fill="#fcdd2e"/>
      <path id="Trazado_983154" data-name="Trazado 983154" d="M106.253,387.058H47.543l4.27,3.2h54.44a2.911,2.911,0,0,0,2.911-2.911v-2.911c0-.049,0-.1-.007-.146a2.909,2.909,0,0,1-2.9,2.766Z" transform="translate(-15.596 -328.916)" fill="#f9c301"/>
      <path id="Trazado_983155" data-name="Trazado 983155" d="M416.588,373.832h5.531a2.911,2.911,0,0,0,2.911-2.911v-2.911a2.911,2.911,0,0,0-2.911-2.911h-5.531Z" transform="translate(-331.462 -312.488)" fill="#fc8086"/>
      <path id="Trazado_983156" data-name="Trazado 983156" d="M422.121,387.058h-5.531v3.2h5.531a2.911,2.911,0,0,0,2.911-2.911v-2.911c0-.049,0-.1-.007-.146a2.909,2.909,0,0,1-2.9,2.766Z" transform="translate(-331.463 -328.916)" fill="#fa4954"/>
      <path id="Trazado_983157" data-name="Trazado 983157" d="M148.407,40.407H125.845a1.081,1.081,0,0,0-.994.656l-4.994,11.693-3.651-8.214a1.081,1.081,0,0,0-.988-.642h-2.038a1.081,1.081,0,0,0,0,2.161h1.336l4.373,9.839a1.081,1.081,0,0,0,.988.642h.008a1.081,1.081,0,0,0,.986-.656l5.688-13.318h21.849a1.081,1.081,0,1,0,0-2.161Z" transform="translate(-70.85 -34.584)"/>
      <path id="Trazado_983158" data-name="Trazado 983158" d="M233.568,87.206a1.081,1.081,0,0,0,1.771-1.24l-2.623-3.747,2.623-3.747a1.081,1.081,0,0,0-1.771-1.24l-2.171,3.1-2.171-3.1a1.081,1.081,0,0,0-1.771,1.24l2.623,3.747-2.623,3.747a1.081,1.081,0,0,0,1.771,1.24l2.171-3.1Z" transform="translate(-169.415 -65.709)"/>
      <path id="Trazado_983159" data-name="Trazado 983159" d="M113.181,175.909h8.734a1.081,1.081,0,1,0,0-2.161h-8.734a1.081,1.081,0,0,0,0,2.161Z" transform="translate(-70.85 -148.711)"/>
      <path id="Trazado_983160" data-name="Trazado 983160" d="M113.181,210.254h8.734a1.081,1.081,0,1,0,0-2.161h-8.734a1.081,1.081,0,1,0,0,2.161Z" transform="translate(-70.85 -178.107)"/>
      <path id="Trazado_983161" data-name="Trazado 983161" d="M305.764,173.748h-8.734a1.081,1.081,0,1,0,0,2.161h8.734a1.081,1.081,0,0,0,0-2.161Z" transform="translate(-228.208 -148.711)"/>
      <path id="Trazado_983162" data-name="Trazado 983162" d="M305.764,208.093h-8.734a1.081,1.081,0,1,0,0,2.161h8.734a1.081,1.081,0,0,0,0-2.161Z" transform="translate(-228.208 -178.107)"/>
      <path id="Trazado_983163" data-name="Trazado 983163" d="M155.543,267.454a1.081,1.081,0,0,0-1.505.266l-1.3,1.854-1.3-1.854a1.081,1.081,0,0,0-1.771,1.24l1.75,2.5-1.75,2.5a1.081,1.081,0,1,0,1.771,1.239l1.3-1.854,1.3,1.854a1.081,1.081,0,0,0,1.771-1.239l-1.75-2.5,1.75-2.5A1.081,1.081,0,0,0,155.543,267.454Z" transform="translate(-102.84 -228.747)"/>
      <path id="Trazado_983164" data-name="Trazado 983164" d="M246.912,275.464a1.08,1.08,0,0,0,1.505-.266l4.367-6.238a1.081,1.081,0,0,0-1.771-1.24l-1.3,1.854-1.3-1.854a1.081,1.081,0,0,0-1.771,1.24l1.75,2.5-1.75,2.5A1.081,1.081,0,0,0,246.912,275.464Z" transform="translate(-185.842 -228.747)"/>
      <path id="Trazado_983165" data-name="Trazado 983165" d="M201.229,280.282a1.081,1.081,0,0,0,1.081-1.081v-1.1h1.1a1.081,1.081,0,0,0,0-2.161h-1.1v-1.1a1.081,1.081,0,1,0-2.161,0v1.1h-1.1a1.081,1.081,0,1,0,0,2.161h1.1v1.1A1.081,1.081,0,0,0,201.229,280.282Z" transform="translate(-144.342 -234.307)"/>
      <path id="Trazado_983166" data-name="Trazado 983166" d="M340.348,274.764h-2.911a1.081,1.081,0,1,0,0,2.161h2.911a1.081,1.081,0,1,0,0-2.161Z" transform="translate(-262.792 -235.171)"/>
      <path id="Trazado_983167" data-name="Trazado 983167" d="M340.348,303.049h-2.911a1.081,1.081,0,1,0,0,2.161h2.911a1.081,1.081,0,1,0,0-2.161Z" transform="translate(-262.792 -259.38)"/>
      <path id="Trazado_983168" data-name="Trazado 983168" d="M114.465,266.348a1.081,1.081,0,1,0,1.529-1.528,5.906,5.906,0,0,1,0-8.353,1.081,1.081,0,0,0-1.528-1.528,8.068,8.068,0,0,0,0,11.409Z" transform="translate(-70.852 -217.932)"/>
      <path id="Trazado_983169" data-name="Trazado 983169" d="M297.218,266.347a1.081,1.081,0,0,0,1.529,0,8.068,8.068,0,0,0,0-11.409,1.081,1.081,0,0,0-1.528,1.528,5.906,5.906,0,0,1,0,8.353A1.081,1.081,0,0,0,297.218,266.347Z" transform="translate(-229.022 -217.931)"/>
      <path id="Trazado_983170" data-name="Trazado 983170" d="M90.864,51.535V27.307a1.081,1.081,0,0,0-2.161,0V51.529h-2.5V6.237h2.5V22.265a1.081,1.081,0,0,0,2.161,0V5.157a1.081,1.081,0,0,0-1.081-1.081H86.207v-3A1.081,1.081,0,0,0,85.126,0H36.217a1.081,1.081,0,0,0-1.081,1.081V38.037a1.081,1.081,0,0,0,2.161,0V2.162H84.046V51.529H77.028a1.081,1.081,0,0,0,0,2.161h7.017v6.572H36.577l-2.941-2.205h.979a1.081,1.081,0,1,0,0-2.161h-.979l2.941-2.205H71.96a1.081,1.081,0,0,0,0-2.161H37.3V43.1a1.081,1.081,0,0,0-2.161,0V52.07l-5.39,4.042a1.093,1.093,0,0,0,0,1.729l5.39,4.043v6.739A1.081,1.081,0,0,0,36.217,69.7h3.578V72.7a1.081,1.081,0,0,0,1.081,1.081H89.784A1.081,1.081,0,0,0,90.864,72.7V62.419a4,4,0,0,0,3.785-3.987V55.521A4,4,0,0,0,90.864,51.535ZM37.3,62.424H84.046v5.117H37.3Zm4.659,9.192V69.7h43.17a1.081,1.081,0,0,0,1.081-1.081v-6.2h2.5v9.192ZM92.488,58.432a1.833,1.833,0,0,1-1.831,1.831H86.206V53.691h4.451a1.833,1.833,0,0,1,1.831,1.83v2.911Z"/>
    </g>
  </g>
</svg>
