<svg xmlns="http://www.w3.org/2000/svg" width="819.999" height="286.45" viewBox="0 0 819.999 286.45">
  <g id="Grupo_1145309" data-name="Grupo 1145309" transform="translate(-389.999 -6088)">
    <path id="Trazado_983051" data-name="Trazado 983051" d="M171.374,204.734a2.194,2.194,0,0,1-2.194-2.194V132.994a2.194,2.194,0,1,1,4.387,0v69.547a2.2,2.2,0,0,1-2.194,2.194" transform="translate(628.64 6163.484)" fill="#e248e8"/>
    <path id="Trazado_983052" data-name="Trazado 983052" d="M166.67,165.215a8.245,8.245,0,1,0,8.244-8.244,8.245,8.245,0,0,0-8.244,8.244" transform="translate(625.099 6200.4)" fill="#e248e8"/>
    <path id="Trazado_983059" data-name="Trazado 983059" d="M309.777,133.6A88.125,88.125,0,1,1,221.652,45.47,88.125,88.125,0,0,1,309.777,133.6" transform="translate(578.347 6043.121)" fill="#e248e8"/>
    <path id="Trazado_983075" data-name="Trazado 983075" d="M282.252,119.833A74.363,74.363,0,1,1,207.889,45.47a74.362,74.362,0,0,1,74.363,74.363" transform="translate(592.111 6056.894)" fill="#fff"/>
    <path id="Trazado_983060" data-name="Trazado 983060" d="M241.656,201.3c-64.454,0-118.18-50.335-122.307-114.589a2.194,2.194,0,0,1,2.047-2.331,2.219,2.219,0,0,1,2.329,2.049c3.982,61.954,55.783,110.483,117.932,110.483S355.611,148.376,359.588,86.42a2.193,2.193,0,1,1,4.378.282C359.839,150.958,306.115,201.3,241.656,201.3" transform="translate(558.343 6097.988)" fill="#e248e8"/>
    <path id="Trazado_983061" data-name="Trazado 983061" d="M216.437,89.853a8.245,8.245,0,1,1,7.817,8.649,8.243,8.243,0,0,1-7.817-8.649" transform="translate(695.284 6094.683)" fill="#e248e8"/>
    <path id="Trazado_983062" data-name="Trazado 983062" d="M133.381,89.853a8.245,8.245,0,1,0-7.817,8.649,8.243,8.243,0,0,0,7.817-8.649" transform="translate(554.897 6094.683)" fill="#e248e8"/>
    <path id="Trazado_983047" data-name="Trazado 983047" d="M53.9,2.339a2.194,2.194,0,0,0-2.194,2.194V74.08a2.194,2.194,0,1,0,4.387,0V4.533A2.2,2.2,0,0,0,53.9,2.339" transform="translate(462.938 6291.948)" fill="#f8c623"/>
    <path id="Trazado_983048" data-name="Trazado 983048" d="M65.688,8.244A8.245,8.245,0,1,1,57.444,0a8.245,8.245,0,0,1,8.244,8.244" transform="translate(459.396 6357.371)" fill="#f8c623"/>
    <path id="Trazado_983054" data-name="Trazado 983054" d="M192.875,133.6a88.125,88.125,0,1,0-88.125,88.125A88.127,88.127,0,0,0,192.875,133.6" transform="translate(413.449 6042.53)" fill="#f8c623"/>
    <path id="Trazado_983074" data-name="Trazado 983074" d="M165.35,119.833A74.363,74.363,0,1,0,90.987,194.2a74.364,74.364,0,0,0,74.363-74.363" transform="translate(426.212 6056.282)" fill="#fff"/>
    <path id="Trazado_983055" data-name="Trazado 983055" d="M4.638,31.183c-.048,0-.094,0-.142,0a2.194,2.194,0,0,0-2.049,2.331C6.574,97.775,60.3,148.112,124.756,148.112S242.937,97.78,247.066,33.526a2.193,2.193,0,0,0-4.378-.284C238.706,95.2,186.906,143.723,124.756,143.723S10.8,95.193,6.824,33.234a2.195,2.195,0,0,0-2.186-2.051" transform="translate(393.445 6150.578)" fill="#f8c623"/>
    <path id="Trazado_983056" data-name="Trazado 983056" d="M16.479,83.021a8.245,8.245,0,1,0-7.82,8.649,8.244,8.244,0,0,0,7.82-8.649" transform="translate(390 6100.922)" fill="#f8c623"/>
    <path id="Trazado_983057" data-name="Trazado 983057" d="M99.535,83.021a8.245,8.245,0,1,1,7.817,8.649,8.243,8.243,0,0,1-7.817-8.649" transform="translate(530.386 6100.922)" fill="#f8c623"/>
    <path id="Trazado_983068" data-name="Trazado 983068" d="M68.259,37.876a9.868,9.868,0,1,0-9.866,9.866,9.869,9.869,0,0,0,9.866-9.866" transform="translate(458.446 6258.604)" fill="#fff"/>
    <path id="Trazado_983069" data-name="Trazado 983069" d="M59.675,27.1a12.06,12.06,0,1,0,12.06,12.06A12.074,12.074,0,0,0,59.675,27.1m0,19.733a7.673,7.673,0,1,1,7.675-7.673,7.682,7.682,0,0,1-7.675,7.673" transform="translate(457.164 6257.323)" fill="#f8c623"/>
    <path id="Trazado_983067" data-name="Trazado 983067" d="M333.338,83.021a8.245,8.245,0,1,1,7.82,8.649,8.244,8.244,0,0,1-7.82-8.649" transform="translate(860.181 6101.513)" fill="#4e9ed2"/>
    <path id="Trazado_983049" data-name="Trazado 983049" d="M288.336,2.339a2.2,2.2,0,0,0-2.194,2.194V74.08a2.194,2.194,0,1,0,4.387,0V4.533a2.194,2.194,0,0,0-2.194-2.194" transform="translate(793.622 6292.539)" fill="#4e9ed2"/>
    <path id="Trazado_983050" data-name="Trazado 983050" d="M300.123,8.244A8.245,8.245,0,1,1,291.879,0a8.245,8.245,0,0,1,8.244,8.244" transform="translate(790.082 6357.962)" fill="#4e9ed2"/>
    <path id="Trazado_983064" data-name="Trazado 983064" d="M426.679,133.6a88.125,88.125,0,1,0-88.126,88.125A88.125,88.125,0,0,0,426.679,133.6" transform="translate(743.245 6043.121)" fill="#4e9ed2"/>
    <path id="Trazado_983076" data-name="Trazado 983076" d="M399.154,119.832a74.363,74.363,0,1,0-74.363,74.363,74.362,74.362,0,0,0,74.363-74.363" transform="translate(757.572 6056.873)" fill="#fff"/>
    <path id="Trazado_983065" data-name="Trazado 983065" d="M238.441,31.183c-.048,0-.094,0-.142,0a2.194,2.194,0,0,0-2.049,2.331c4.127,64.256,57.851,114.593,122.31,114.593S476.74,97.78,480.869,33.526a2.193,2.193,0,0,0-4.378-.284C472.509,95.2,420.709,143.723,358.559,143.723S244.6,95.193,240.627,33.234a2.193,2.193,0,0,0-2.186-2.051" transform="translate(723.239 6151.169)" fill="#4e9ed2"/>
    <path id="Trazado_983066" data-name="Trazado 983066" d="M250.283,83.021a8.245,8.245,0,1,0-7.82,8.649,8.244,8.244,0,0,0,7.82-8.649" transform="translate(719.795 6101.513)" fill="#4e9ed2"/>
    <path id="Trazado_983070" data-name="Trazado 983070" d="M302.644,37.876a9.869,9.869,0,1,0-9.871,9.866,9.871,9.871,0,0,0,9.871-9.866" transform="translate(789.058 6259.195)" fill="#fff"/>
    <path id="Trazado_983071" data-name="Trazado 983071" d="M294.057,27.1a12.06,12.06,0,1,0,12.06,12.06,12.074,12.074,0,0,0-12.06-12.06m0,19.733a7.673,7.673,0,1,1,7.675-7.673,7.682,7.682,0,0,1-7.675,7.673" transform="translate(787.775 6257.914)" fill="#4e9ed2"/>
    <path id="Trazado_983072" data-name="Trazado 983072" d="M185.725,137.738a9.868,9.868,0,1,1-9.869-9.869,9.867,9.867,0,0,1,9.869,9.869" transform="translate(624.14 6159.35)" fill="#fff"/>
    <path id="Trazado_983073" data-name="Trazado 983073" d="M177.14,151.083a12.061,12.061,0,1,1,12.06-12.06,12.074,12.074,0,0,1-12.06,12.06m0-19.735a7.673,7.673,0,1,0,7.675,7.675,7.683,7.683,0,0,0-7.675-7.675" transform="translate(622.856 6158.067)" fill="#e248e8"/>
    <path id="Trazado_983187" data-name="Trazado 983187" d="M12.362,8.34H6.069v3.331h7.172V14H3.424V1.045h9.5V3.339H6.069V6.09h6.293Zm7.3-2.065A1.744,1.744,0,0,0,17.91,7.355a3.713,3.713,0,0,0-.246,1.459V14h-2.5V4.438h2.417v1.4A4.252,4.252,0,0,1,18.5,4.771a3.177,3.177,0,0,1,1.96-.58,3.7,3.7,0,0,1,2.43.778,3.163,3.163,0,0,1,.945,2.58V14H21.267V8.173a2.659,2.659,0,0,0-.2-1.16A1.422,1.422,0,0,0,19.659,6.274ZM39.438,7.856H36.871a2.223,2.223,0,0,0-.36-.967,1.511,1.511,0,0,0-1.31-.58A1.725,1.725,0,0,0,33.47,7.566a5.255,5.255,0,0,0-.246,1.775,4.832,4.832,0,0,0,.246,1.7,1.671,1.671,0,0,0,1.688,1.2,1.488,1.488,0,0,0,1.248-.475,2.362,2.362,0,0,0,.448-1.23h2.558a4.191,4.191,0,0,1-.826,2.162A4.016,4.016,0,0,1,35.1,14.334a4.082,4.082,0,0,1-3.4-1.371A5.548,5.548,0,0,1,30.6,9.4a5.63,5.63,0,0,1,1.2-3.841,4.191,4.191,0,0,1,3.322-1.371A5,5,0,0,1,38.08,5,3.761,3.761,0,0,1,39.438,7.856Zm9.714-2.224a5.59,5.59,0,0,1,1.213,3.595,5.553,5.553,0,0,1-1.213,3.608,4.456,4.456,0,0,1-3.683,1.5,4.456,4.456,0,0,1-3.683-1.5,5.553,5.553,0,0,1-1.213-3.608,5.59,5.59,0,0,1,1.213-3.595,4.426,4.426,0,0,1,3.683-1.521A4.426,4.426,0,0,1,49.152,5.633Zm-3.691.6a2,2,0,0,0-1.692.778,3.6,3.6,0,0,0-.593,2.219,3.619,3.619,0,0,0,.593,2.224,2.216,2.216,0,0,0,3.379,0,3.639,3.639,0,0,0,.589-2.224,3.619,3.619,0,0,0-.589-2.219A1.99,1.99,0,0,0,45.46,6.23Zm12.078.826A1.227,1.227,0,0,0,56.3,6.362a1.479,1.479,0,0,0-1.441.694,2.675,2.675,0,0,0-.2,1.178V14h-2.54V4.438H54.55v1.4a4.031,4.031,0,0,1,.879-1.063,3.478,3.478,0,0,1,3.665-.079,2.812,2.812,0,0,1,.826,1.151A3.185,3.185,0,0,1,61.142,4.6a3.728,3.728,0,0,1,1.723-.4,3.335,3.335,0,0,1,1.248.246,2.784,2.784,0,0,1,1.116.861,2.752,2.752,0,0,1,.545,1.23,8.5,8.5,0,0,1,.088,1.415L65.844,14H63.277V7.9A2,2,0,0,0,63.1,7a1.249,1.249,0,0,0-1.23-.668,1.44,1.44,0,0,0-1.433.861,2.7,2.7,0,0,0-.2,1.1V14H57.714V8.3A3.2,3.2,0,0,0,57.538,7.057Zm18.828,4.131a3.178,3.178,0,0,1-.888,1.731,4.349,4.349,0,0,1-3.445,1.4,4.858,4.858,0,0,1-3.226-1.178,4.75,4.75,0,0,1-1.4-3.832,5.326,5.326,0,0,1,1.261-3.814,4.312,4.312,0,0,1,3.274-1.327,5.021,5.021,0,0,1,2.153.448,3.772,3.772,0,0,1,1.582,1.415,4.828,4.828,0,0,1,.729,1.978,12.771,12.771,0,0,1,.079,1.9H69.932a2.381,2.381,0,0,0,.905,2.021,2.132,2.132,0,0,0,1.248.36,1.8,1.8,0,0,0,1.257-.439,2.087,2.087,0,0,0,.466-.659ZM73.888,8.252a2.181,2.181,0,0,0-.6-1.507,1.87,1.87,0,0,0-1.34-.514,1.7,1.7,0,0,0-1.349.545,2.72,2.72,0,0,0-.6,1.477Zm9.107-1.521a2.078,2.078,0,0,0-2.03.984,3.829,3.829,0,0,0-.29,1.705V14H78.152V4.42h2.391V6.09a5.3,5.3,0,0,1,1.011-1.31,2.752,2.752,0,0,1,1.828-.589q.07,0,.119,0l.215.013V6.775q-.237-.026-.422-.035T82.995,6.731ZM93.473,7.856H90.907a2.223,2.223,0,0,0-.36-.967,1.511,1.511,0,0,0-1.31-.58,1.725,1.725,0,0,0-1.731,1.257,5.255,5.255,0,0,0-.246,1.775,4.832,4.832,0,0,0,.246,1.7,1.671,1.671,0,0,0,1.688,1.2,1.488,1.488,0,0,0,1.248-.475,2.362,2.362,0,0,0,.448-1.23h2.558a4.191,4.191,0,0,1-.826,2.162,4.016,4.016,0,0,1-3.489,1.644,4.082,4.082,0,0,1-3.4-1.371A5.548,5.548,0,0,1,84.64,9.4a5.63,5.63,0,0,1,1.2-3.841,4.191,4.191,0,0,1,3.322-1.371A5,5,0,0,1,92.115,5,3.761,3.761,0,0,1,93.473,7.856Zm4.3-3.437V14h-2.54V4.42Zm0-3.454V3.277h-2.54V.966ZM108.19,5.633A5.59,5.59,0,0,1,109.4,9.228a5.553,5.553,0,0,1-1.213,3.608,5.274,5.274,0,0,1-7.365,0,5.553,5.553,0,0,1-1.213-3.608,5.59,5.59,0,0,1,1.213-3.595,5.22,5.22,0,0,1,7.365,0Zm-3.691.6a2,2,0,0,0-1.692.778,3.6,3.6,0,0,0-.593,2.219,3.619,3.619,0,0,0,.593,2.224,2.216,2.216,0,0,0,3.379,0,3.639,3.639,0,0,0,.589-2.224,3.619,3.619,0,0,0-.589-2.219A1.99,1.99,0,0,0,104.5,6.23Z" transform="translate(461 6164.982)" fill="#0b0a0a"/>
    <path id="Trazado_983188" data-name="Trazado 983188" d="M15.378,8.34H9.085v3.331h7.172V14H6.439V1.045h9.5V3.339H9.085V6.09h6.293Zm7.3-2.065a1.744,1.744,0,0,0-1.749,1.081,3.713,3.713,0,0,0-.246,1.459V14h-2.5V4.438H20.6v1.4a4.252,4.252,0,0,1,.914-1.063,3.177,3.177,0,0,1,1.96-.58,3.7,3.7,0,0,1,2.43.778,3.163,3.163,0,0,1,.945,2.58V14H24.283V8.173a2.659,2.659,0,0,0-.2-1.16A1.422,1.422,0,0,0,22.675,6.274ZM42.19,5.448a5.14,5.14,0,0,1,1.16,3.639,5.771,5.771,0,0,1-1.138,3.858,3.685,3.685,0,0,1-2.931,1.327,3.059,3.059,0,0,1-1.9-.571,3.683,3.683,0,0,1-.809-.923v4.992H34.1V4.42h2.4V5.835a4.021,4.021,0,0,1,.861-.984,3.165,3.165,0,0,1,1.986-.642A3.767,3.767,0,0,1,42.19,5.448ZM40.766,9.21a3.77,3.77,0,0,0-.505-1.96A1.759,1.759,0,0,0,38.622,6.4a1.865,1.865,0,0,0-1.872,1.292,4.9,4.9,0,0,0-.264,1.74,2.776,2.776,0,0,0,.888,2.347,2.021,2.021,0,0,0,1.248.4,1.809,1.809,0,0,0,1.6-.809A3.771,3.771,0,0,0,40.766,9.21Zm9.213-2.479a2.078,2.078,0,0,0-2.03.984,3.829,3.829,0,0,0-.29,1.705V14H45.136V4.42h2.391V6.09a5.3,5.3,0,0,1,1.011-1.31,2.752,2.752,0,0,1,1.828-.589q.07,0,.119,0l.215.013V6.775q-.237-.026-.422-.035T49.979,6.731Zm10.18-1.1a5.59,5.59,0,0,1,1.213,3.595,5.553,5.553,0,0,1-1.213,3.608,4.456,4.456,0,0,1-3.683,1.5,4.456,4.456,0,0,1-3.683-1.5A5.553,5.553,0,0,1,51.58,9.228a5.59,5.59,0,0,1,1.213-3.595,4.426,4.426,0,0,1,3.683-1.521A4.426,4.426,0,0,1,60.158,5.633Zm-3.691.6a2,2,0,0,0-1.692.778,3.6,3.6,0,0,0-.593,2.219,3.619,3.619,0,0,0,.593,2.224,2.216,2.216,0,0,0,3.379,0,3.639,3.639,0,0,0,.589-2.224,3.619,3.619,0,0,0-.589-2.219A1.99,1.99,0,0,0,56.467,6.23ZM71.885,1.063V14H69.45V12.673a3.533,3.533,0,0,1-1.222,1.239,3.43,3.43,0,0,1-1.705.387A3.56,3.56,0,0,1,63.7,12.941a5.215,5.215,0,0,1-1.147-3.485A6,6,0,0,1,63.68,5.6,3.674,3.674,0,0,1,66.7,4.191a3.09,3.09,0,0,1,1.547.382,3.043,3.043,0,0,1,1.1,1.059V1.063Zm-6.75,8.209a3.767,3.767,0,0,0,.527,2.118,1.756,1.756,0,0,0,1.582.8,1.849,1.849,0,0,0,1.617-.791,3.5,3.5,0,0,0,.554-2.048,3.141,3.141,0,0,0-.888-2.514,1.91,1.91,0,0,0-1.266-.457,1.759,1.759,0,0,0-1.613.831A3.848,3.848,0,0,0,65.135,9.271Zm15.172,3.375q-.035.044-.176.264a1.764,1.764,0,0,1-.334.387,3.488,3.488,0,0,1-1.138.721,3.879,3.879,0,0,1-1.288.193,2.87,2.87,0,0,1-2.865-1.529,5.852,5.852,0,0,1-.413-2.487V4.42h2.566v5.774a3.023,3.023,0,0,0,.193,1.23,1.338,1.338,0,0,0,1.345.729,1.758,1.758,0,0,0,1.758-1.037A3.754,3.754,0,0,0,80.2,9.632V4.42h2.54V14H80.306Zm13.141-4.79H90.882a2.223,2.223,0,0,0-.36-.967,1.511,1.511,0,0,0-1.31-.58A1.725,1.725,0,0,0,87.48,7.566a5.255,5.255,0,0,0-.246,1.775,4.832,4.832,0,0,0,.246,1.7,1.671,1.671,0,0,0,1.688,1.2,1.488,1.488,0,0,0,1.248-.475,2.362,2.362,0,0,0,.448-1.23h2.558A4.191,4.191,0,0,1,92.6,12.69a4.016,4.016,0,0,1-3.489,1.644,4.082,4.082,0,0,1-3.4-1.371,5.548,5.548,0,0,1-1.09-3.56,5.63,5.63,0,0,1,1.2-3.841,4.191,4.191,0,0,1,3.322-1.371A5,5,0,0,1,92.09,5,3.761,3.761,0,0,1,93.448,7.856Zm10.013,0h-2.566a2.223,2.223,0,0,0-.36-.967,1.511,1.511,0,0,0-1.31-.58,1.725,1.725,0,0,0-1.731,1.257,5.255,5.255,0,0,0-.246,1.775,4.832,4.832,0,0,0,.246,1.7,1.671,1.671,0,0,0,1.688,1.2,1.488,1.488,0,0,0,1.248-.475,2.362,2.362,0,0,0,.448-1.23h2.558a4.191,4.191,0,0,1-.826,2.162,4.016,4.016,0,0,1-3.489,1.644,4.082,4.082,0,0,1-3.4-1.371,5.548,5.548,0,0,1-1.09-3.56,5.63,5.63,0,0,1,1.2-3.841,4.191,4.191,0,0,1,3.322-1.371A5,5,0,0,1,102.1,5,3.761,3.761,0,0,1,103.46,7.856Zm4.3-3.437V14h-2.54V4.42Zm0-3.454V3.277h-2.54V.966Zm10.417,4.667a5.59,5.59,0,0,1,1.213,3.595,5.553,5.553,0,0,1-1.213,3.608,5.274,5.274,0,0,1-7.365,0A5.553,5.553,0,0,1,109.6,9.228a5.59,5.59,0,0,1,1.213-3.595,5.22,5.22,0,0,1,7.365,0Zm-3.691.6a2,2,0,0,0-1.692.778,3.6,3.6,0,0,0-.593,2.219,3.619,3.619,0,0,0,.593,2.224,2.216,2.216,0,0,0,3.379,0,3.639,3.639,0,0,0,.589-2.224,3.619,3.619,0,0,0-.589-2.219A1.99,1.99,0,0,0,114.486,6.23Zm-1.477-3.1L114.7.5h2.795L114.82,3.128Zm12.684,3.146a1.744,1.744,0,0,0-1.749,1.081,3.713,3.713,0,0,0-.246,1.459V14h-2.5V4.438h2.417v1.4a4.252,4.252,0,0,1,.914-1.063,3.177,3.177,0,0,1,1.96-.58,3.7,3.7,0,0,1,2.43.778,3.163,3.163,0,0,1,.945,2.58V14H127.3V8.173a2.659,2.659,0,0,0-.2-1.16A1.422,1.422,0,0,0,125.693,6.274Z" transform="translate(732 6164.982)" fill="#0b0a0a"/>
    <path id="Trazado_983189" data-name="Trazado 983189" d="M66.887,8.34H60.594v3.331h7.172V14H57.949V1.045h9.5V3.339H60.594V6.09h6.293Zm7.3-2.065a1.744,1.744,0,0,0-1.749,1.081,3.713,3.713,0,0,0-.246,1.459V14h-2.5V4.438H72.11v1.4a4.252,4.252,0,0,1,.914-1.063,3.177,3.177,0,0,1,1.96-.58,3.7,3.7,0,0,1,2.43.778,3.163,3.163,0,0,1,.945,2.58V14H75.792V8.173a2.659,2.659,0,0,0-.2-1.16A1.422,1.422,0,0,0,74.184,6.274ZM20.938,34.856H18.371a2.223,2.223,0,0,0-.36-.967,1.511,1.511,0,0,0-1.31-.58,1.725,1.725,0,0,0-1.731,1.257,5.255,5.255,0,0,0-.246,1.775,4.832,4.832,0,0,0,.246,1.7,1.671,1.671,0,0,0,1.688,1.2,1.488,1.488,0,0,0,1.248-.475,2.362,2.362,0,0,0,.448-1.23h2.558a4.191,4.191,0,0,1-.826,2.162A4.016,4.016,0,0,1,16.6,41.334a4.082,4.082,0,0,1-3.4-1.371A5.548,5.548,0,0,1,12.1,36.4a5.63,5.63,0,0,1,1.2-3.841,4.191,4.191,0,0,1,3.322-1.371A5,5,0,0,1,19.58,32,3.761,3.761,0,0,1,20.938,34.856Zm9.714-2.224a5.953,5.953,0,0,1,0,7.2,4.456,4.456,0,0,1-3.683,1.5,4.456,4.456,0,0,1-3.683-1.5,5.953,5.953,0,0,1,0-7.2,4.426,4.426,0,0,1,3.683-1.521A4.426,4.426,0,0,1,30.652,32.633Zm-3.691.6a2,2,0,0,0-1.692.778,3.6,3.6,0,0,0-.593,2.219,3.619,3.619,0,0,0,.593,2.224,2.216,2.216,0,0,0,3.379,0,3.639,3.639,0,0,0,.589-2.224,3.619,3.619,0,0,0-.589-2.219A1.99,1.99,0,0,0,26.96,33.23Zm11.208.044a1.744,1.744,0,0,0-1.749,1.081,3.713,3.713,0,0,0-.246,1.459V41h-2.5V31.438h2.417v1.4a4.252,4.252,0,0,1,.914-1.063,3.177,3.177,0,0,1,1.96-.58,3.7,3.7,0,0,1,2.43.778,3.163,3.163,0,0,1,.945,2.58V41H39.776V35.173a2.659,2.659,0,0,0-.2-1.16A1.422,1.422,0,0,0,38.168,33.274Zm13.089-1.415a3.086,3.086,0,0,1,1.292,2.479h-2.5a1.482,1.482,0,0,0-.272-.765,1.714,1.714,0,0,0-1.406-.51,2.021,2.021,0,0,0-1.165.255.734.734,0,0,0-.347.6.654.654,0,0,0,.369.624,15.98,15.98,0,0,0,2.61.694A4.8,4.8,0,0,1,52.074,36.3a2.415,2.415,0,0,1,.738,1.8,2.911,2.911,0,0,1-1.059,2.325,4.976,4.976,0,0,1-3.274.9,4.929,4.929,0,0,1-3.335-.954,3.1,3.1,0,0,1-1.077-2.43h2.54a1.673,1.673,0,0,0,.343.949,2.317,2.317,0,0,0,1.723.5,2.626,2.626,0,0,0,1.173-.22.737.737,0,0,0,.083-1.3,14.3,14.3,0,0,0-2.61-.756A5.437,5.437,0,0,1,45.025,36.1a2.191,2.191,0,0,1-.668-1.723A2.988,2.988,0,0,1,45.4,32.1a4.183,4.183,0,0,1,2.931-.954A5.427,5.427,0,0,1,51.257,31.859Zm7.8,7.356v1.872l-1.187.044a3.184,3.184,0,0,1-2.426-.615,1.832,1.832,0,0,1-.422-1.327v-5.9H53.684V31.508H55.02V28.836H57.5v2.672h1.556v1.784H57.5v5.063a1.14,1.14,0,0,0,.149.734,1.645,1.645,0,0,0,.914.145q.114,0,.242,0T59.054,39.216Zm6.427-5.484a2.078,2.078,0,0,0-2.03.984,3.829,3.829,0,0,0-.29,1.705V41H60.638V31.42h2.391v1.67a5.3,5.3,0,0,1,1.011-1.31,2.752,2.752,0,0,1,1.828-.589q.07,0,.119,0l.215.013v2.566q-.237-.026-.422-.035T65.481,33.731Zm8.334,5.915q-.035.044-.176.264a1.764,1.764,0,0,1-.334.387,3.488,3.488,0,0,1-1.138.721,3.879,3.879,0,0,1-1.288.193,2.87,2.87,0,0,1-2.865-1.529,5.852,5.852,0,0,1-.413-2.487V31.42h2.566v5.774a3.023,3.023,0,0,0,.193,1.23,1.338,1.338,0,0,0,1.345.729,1.758,1.758,0,0,0,1.758-1.037,3.754,3.754,0,0,0,.246-1.485V31.42h2.54V41H73.815Zm13.141-4.79H84.39a2.223,2.223,0,0,0-.36-.967,1.511,1.511,0,0,0-1.31-.58,1.725,1.725,0,0,0-1.731,1.257,5.255,5.255,0,0,0-.246,1.775,4.832,4.832,0,0,0,.246,1.7,1.671,1.671,0,0,0,1.688,1.2,1.488,1.488,0,0,0,1.248-.475,2.362,2.362,0,0,0,.448-1.23H86.93A4.191,4.191,0,0,1,86.1,39.69a4.016,4.016,0,0,1-3.489,1.644,4.082,4.082,0,0,1-3.4-1.371,5.548,5.548,0,0,1-1.09-3.56,5.63,5.63,0,0,1,1.2-3.841,4.191,4.191,0,0,1,3.322-1.371A5,5,0,0,1,85.6,32,3.761,3.761,0,0,1,86.956,34.856Zm10.013,0H94.4a2.223,2.223,0,0,0-.36-.967,1.511,1.511,0,0,0-1.31-.58A1.725,1.725,0,0,0,91,34.566a5.255,5.255,0,0,0-.246,1.775,4.832,4.832,0,0,0,.246,1.7,1.671,1.671,0,0,0,1.688,1.2,1.488,1.488,0,0,0,1.248-.475,2.362,2.362,0,0,0,.448-1.23h2.558a4.191,4.191,0,0,1-.826,2.162,4.016,4.016,0,0,1-3.489,1.644,4.082,4.082,0,0,1-3.4-1.371,5.548,5.548,0,0,1-1.09-3.56,5.63,5.63,0,0,1,1.2-3.841,4.191,4.191,0,0,1,3.322-1.371A5,5,0,0,1,95.611,32,3.761,3.761,0,0,1,96.969,34.856Zm4.3-3.437V41h-2.54V31.42Zm0-3.454v2.312h-2.54V27.966Zm10.417,4.667a5.953,5.953,0,0,1,0,7.2,5.274,5.274,0,0,1-7.365,0,5.953,5.953,0,0,1,0-7.2,5.22,5.22,0,0,1,7.365,0Zm-3.691.6a2,2,0,0,0-1.692.778,3.6,3.6,0,0,0-.593,2.219,3.619,3.619,0,0,0,.593,2.224,2.216,2.216,0,0,0,3.379,0,3.639,3.639,0,0,0,.589-2.224,3.619,3.619,0,0,0-.589-2.219A1.99,1.99,0,0,0,107.994,33.23Zm-1.477-3.1L108.2,27.5H111l-2.672,2.628ZM119.2,33.274a1.744,1.744,0,0,0-1.749,1.081,3.713,3.713,0,0,0-.246,1.459V41h-2.5V31.438h2.417v1.4a4.252,4.252,0,0,1,.914-1.063,3.177,3.177,0,0,1,1.96-.58,3.7,3.7,0,0,1,2.43.778,3.163,3.163,0,0,1,.945,2.58V41H120.81V35.173a2.659,2.659,0,0,0-.2-1.16A1.422,1.422,0,0,0,119.2,33.274Z" transform="translate(1014 6164.982)" fill="#0b0a0a"/>
  </g>
</svg>
