<svg xmlns="http://www.w3.org/2000/svg" xmlns:xlink="http://www.w3.org/1999/xlink" width="108" height="108" viewBox="0 0 108 108">
  <defs>
    <filter id="Trazado_904820" x="0" y="0" width="108" height="108" filterUnits="userSpaceOnUse">
      <feOffset dy="3" input="SourceAlpha"/>
      <feGaussianBlur stdDeviation="3" result="blur"/>
      <feFlood flood-opacity="0.161"/>
      <feComposite operator="in" in2="blur"/>
      <feComposite in="SourceGraphic"/>
    </filter>
  </defs>
  <g id="Grupo_1145308" data-name="Grupo 1145308" transform="translate(-201 -8446)">
    <g id="Grupo_1145247" data-name="Grupo 1145247" transform="translate(-525 6079)">
      <g transform="matrix(1, 0, 0, 1, 726, 2367)" filter="url(#Trazado_904820)">
        <g id="Trazado_904820-2" data-name="Trazado 904820" transform="translate(9 6)" fill="#ecf4fa">
          <path d="M 45 88.5 C 39.12687683105469 88.5 33.43022537231445 87.35007476806641 28.06830024719238 85.08217620849609 C 22.88852500915527 82.89131164550781 18.23629951477051 79.75458526611328 14.2408504486084 75.75914764404297 C 10.24541282653809 71.76370239257812 7.108687400817871 67.11147308349609 4.917825222015381 61.93170166015625 C 2.649924993515015 56.56977462768555 1.5 50.87312316894531 1.5 45 C 1.5 39.12687683105469 2.649924993515015 33.43022537231445 4.917825222015381 28.06830024719238 C 7.108687400817871 22.88852500915527 10.24541282653809 18.23629951477051 14.2408504486084 14.2408504486084 C 18.23629951477051 10.24541282653809 22.88852500915527 7.108687400817871 28.06830024719238 4.917825222015381 C 33.43022537231445 2.649924993515015 39.12687683105469 1.5 45 1.5 C 50.87312316894531 1.5 56.56977462768555 2.649924993515015 61.93170166015625 4.917825222015381 C 67.11147308349609 7.108687400817871 71.76370239257812 10.24541282653809 75.75914764404297 14.2408504486084 C 79.75458526611328 18.23629951477051 82.89131164550781 22.88852500915527 85.08217620849609 28.06830024719238 C 87.35007476806641 33.43022537231445 88.5 39.12687683105469 88.5 45 C 88.5 50.87312316894531 87.35007476806641 56.56977462768555 85.08217620849609 61.93170166015625 C 82.89131164550781 67.11147308349609 79.75458526611328 71.76370239257812 75.75914764404297 75.75914764404297 C 71.76370239257812 79.75458526611328 67.11147308349609 82.89131164550781 61.93170166015625 85.08217620849609 C 56.56977462768555 87.35007476806641 50.87312316894531 88.5 45 88.5 Z" stroke="none"/>
          <path d="M 45 3 C 39.32871246337891 3 33.82865524291992 4.110054016113281 28.65262985229492 6.299339294433594 C 23.65165710449219 8.414573669433594 19.15968322753906 11.44334411621094 15.301513671875 15.301513671875 C 11.44334411621094 19.15968322753906 8.414573669433594 23.65165710449219 6.299339294433594 28.65262985229492 C 4.110054016113281 33.82865524291992 3 39.32871246337891 3 45 C 3 50.67128753662109 4.110054016113281 56.17134475708008 6.299339294433594 61.34737396240234 C 8.414573669433594 66.34834289550781 11.44334411621094 70.84031677246094 15.301513671875 74.698486328125 C 19.15968322753906 78.55665588378906 23.65165710449219 81.58542633056641 28.65262985229492 83.70066070556641 C 33.82865524291992 85.88994598388672 39.32871246337891 87 45 87 C 50.67128753662109 87 56.17134475708008 85.88994598388672 61.34737396240234 83.70066070556641 C 66.34834289550781 81.58542633056641 70.84031677246094 78.55665588378906 74.698486328125 74.698486328125 C 78.55665588378906 70.84031677246094 81.58542633056641 66.34834289550781 83.70066070556641 61.34737396240234 C 85.88994598388672 56.17134475708008 87 50.67128753662109 87 45 C 87 39.32871246337891 85.88994598388672 33.82865524291992 83.70066070556641 28.65262985229492 C 81.58542633056641 23.65165710449219 78.55665588378906 19.15968322753906 74.698486328125 15.301513671875 C 70.84031677246094 11.44334411621094 66.34834289550781 8.414573669433594 61.34737396240234 6.299339294433594 C 56.17134475708008 4.110054016113281 50.67128753662109 3 45 3 M 45 0 C 69.85281372070312 0 90 20.14718627929688 90 45 C 90 69.85281372070312 69.85281372070312 90 45 90 C 20.14718627929688 90 0 69.85281372070312 0 45 C 0 20.14718627929688 20.14718627929688 0 45 0 Z" stroke="none" fill="#2a5673"/>
        </g>
      </g>
    </g>
    <g id="_027-notepad" data-name="027-notepad" transform="translate(168.749 8463.741)">
      <path id="Trazado_983171" data-name="Trazado 983171" d="M69.752,99.612H116.5v50.815H69.752Z" transform="translate(-6.56 -87.11)" fill="#e5ecf1"/>
      <path id="Trazado_983172" data-name="Trazado 983172" d="M69.752,99.612v3.049h41.415a2.541,2.541,0,0,1,2.541,2.541v45.226H116.5V99.612Z" transform="translate(-6.56 -87.11)" fill="#b6c1cc"/>
      <path id="Trazado_983173" data-name="Trazado 983173" d="M69.752,38.879H116.5V46.5H69.752Z" transform="translate(-6.56 -33.999)" fill="#da8659"/>
      <path id="Trazado_983174" data-name="Trazado 983174" d="M419.98,38.879h2.795V46.5H419.98Z" transform="translate(-312.832 -33.999)" fill="#c56e37"/>
      <path id="Trazado_983175" data-name="Trazado 983175" d="M109.943,3.938h-5.156v-3a.941.941,0,0,0-1.883,0v3H96.148v-3a.941.941,0,0,0-1.883,0v3H87.509v-3a.941.941,0,1,0-1.883,0v3H78.87v-3a.941.941,0,0,0-1.883,0v3H70.231v-3a.941.941,0,0,0-1.883,0v3H63.192a.941.941,0,0,0-.941.941V44.735a.941.941,0,1,0,1.883,0V13.443H109v7.182a.941.941,0,1,0,1.883,0V4.88a.941.941,0,0,0-.941-.941ZM64.134,5.821h4.215v2.87a.941.941,0,0,0,1.883,0V5.821h6.756v2.87a.941.941,0,0,0,1.883,0V5.821h6.756v2.87a.941.941,0,1,0,1.883,0V5.821h6.756v2.87a.941.941,0,1,0,1.883,0V5.821H102.9v2.87a.941.941,0,0,0,1.883,0V5.821H109v5.74H64.134Z"/>
      <path id="Trazado_983176" data-name="Trazado 983176" d="M119.062,257.573l-3.286,7.286-1.863-3.027a.941.941,0,1,0-1.6.987l2.793,4.539a.941.941,0,0,0,.8.448l.06,0a.941.941,0,0,0,.8-.552l3.765-8.349h6.9a.941.941,0,0,0,0-1.883h-7.507a.941.941,0,0,0-.858.554Z" transform="translate(-43.654 -224.762)"/>
      <path id="Trazado_983177" data-name="Trazado 983177" d="M196.211,292.07a.941.941,0,0,0-1.331,0l-1.6,1.6-1.6-1.6a.941.941,0,1,0-1.331,1.331l1.6,1.6-1.6,1.6a.941.941,0,0,0,1.331,1.331l1.6-1.6,1.6,1.6a.941.941,0,1,0,1.331-1.331l-1.6-1.6,1.6-1.6A.941.941,0,0,0,196.211,292.07Z" transform="translate(-111.773 -255.172)"/>
      <path id="Trazado_983178" data-name="Trazado 983178" d="M109.943,191.875a.941.941,0,0,0-.941.941V230.17H64.134V216.929a.941.941,0,0,0-1.883,0v14.182a.941.941,0,0,0,.941.941h46.75a.941.941,0,0,0,.941-.941V192.816A.941.941,0,0,0,109.943,191.875Z" transform="translate(0 -167.794)"/>
      <path id="Trazado_983179" data-name="Trazado 983179" d="M251.22,276.792a.941.941,0,0,0,.941-.941v-.837h15.066a.941.941,0,1,0,0-1.883H252.161V252.984a.941.941,0,1,0-1.883,0v20.147h-.837a.941.941,0,0,0,0,1.883h.837v.837A.941.941,0,0,0,251.22,276.792Z" transform="translate(-162.874 -220.41)"/>
      <path id="Trazado_983180" data-name="Trazado 983180" d="M292.966,318.85a.941.941,0,0,0-.941.941,10.747,10.747,0,0,0,1.647,5.912,4.937,4.937,0,0,0,8.753,0,10.747,10.747,0,0,0,1.647-5.912.941.941,0,0,0-1.883,0c0,3.621-1.9,6.681-4.14,6.681s-4.14-3.06-4.14-6.681A.941.941,0,0,0,292.966,318.85Z" transform="translate(-200.936 -278.833)"/>
      <path id="Trazado_983181" data-name="Trazado 983181" d="M114.636,157.969a2.468,2.468,0,0,0-2.466,2.466v1.043a2.469,2.469,0,0,0,2.466,2.466h.033c.594-.008,1.1-.012,1.489-.012.532,0,.757.007.847.012a.942.942,0,0,0,1.159-.916v-6.15a3.024,3.024,0,0,0-3.02-3.02h-.128a2.85,2.85,0,0,0-2.847,2.847.941.941,0,0,0,1.883,0,.966.966,0,0,1,.964-.964h.128a1.139,1.139,0,0,1,1.138,1.138v1.092h-1.646Zm1.646,4.08c-.42,0-.971,0-1.646.012a.584.584,0,0,1-.583-.583v-1.043a.584.584,0,0,1,.583-.583h1.646Z" transform="translate(-43.654 -134.547)"/>
      <path id="Trazado_983182" data-name="Trazado 983182" d="M247.1,153.877a.941.941,0,0,0-.941.941v8.224a.941.941,0,0,0,.941.941h2.056a3,3,0,1,0,0-5.995h-1.115v-3.171A.941.941,0,0,0,247.1,153.877Zm2.056,5.995a1.115,1.115,0,0,1,0,2.229h-1.115v-2.229Z" transform="translate(-160.824 -134.565)"/>
      <path id="Trazado_983183" data-name="Trazado 983183" d="M355.063,164.187a3,3,0,0,0-3,3V170a3,3,0,1,0,5.995,0v-2.818A3,3,0,0,0,355.063,164.187ZM356.178,170a1.115,1.115,0,1,1-2.229,0v-2.818a1.115,1.115,0,1,1,2.229,0Z" transform="translate(-253.442 -143.581)"/>
      <path id="Trazado_983184" data-name="Trazado 983184" d="M175.242,162.348a.941.941,0,0,0-.941.941V165.4h-2.108a.941.941,0,0,0,0,1.883H174.3v2.108a.941.941,0,0,0,1.883,0V167.28h2.108a.941.941,0,1,0,0-1.883h-2.108v-2.108A.941.941,0,0,0,175.242,162.348Z" transform="translate(-95.321 -141.973)"/>
      <path id="Trazado_983185" data-name="Trazado 983185" d="M306.2,176.378h2.541a.941.941,0,0,0,0-1.883H306.2a.941.941,0,1,0,0,1.883Z" transform="translate(-212.508 -152.595)"/>
      <path id="Trazado_983186" data-name="Trazado 983186" d="M306.2,200.671h2.541a.941.941,0,0,0,0-1.883H306.2a.941.941,0,0,0,0,1.883Z" transform="translate(-212.508 -173.839)"/>
    </g>
  </g>
</svg>
