<svg xmlns="http://www.w3.org/2000/svg" xmlns:xlink="http://www.w3.org/1999/xlink" width="108" height="108" viewBox="0 0 108 108">
  <defs>
    <filter id="Trazado_904820" x="0" y="0" width="108" height="108" filterUnits="userSpaceOnUse">
      <feOffset dy="3" input="SourceAlpha"/>
      <feGaussianBlur stdDeviation="3" result="blur"/>
      <feFlood flood-opacity="0.161"/>
      <feComposite operator="in" in2="blur"/>
      <feComposite in="SourceGraphic"/>
    </filter>
  </defs>
  <g id="Grupo_1145302" data-name="Grupo 1145302" transform="translate(-726 -697)">
    <g id="Grupo_1145231" data-name="Grupo 1145231" transform="translate(0 -1670)">
      <g transform="matrix(1, 0, 0, 1, 726, 2367)" filter="url(#Trazado_904820)">
        <g id="Trazado_904820-2" data-name="Trazado 904820" transform="translate(9 6)" fill="#ecf4fa">
          <path d="M 45 88.5 C 39.12687683105469 88.5 33.43022537231445 87.35007476806641 28.06830024719238 85.08217620849609 C 22.88852500915527 82.89131164550781 18.23629951477051 79.75458526611328 14.2408504486084 75.75914764404297 C 10.24541282653809 71.76370239257812 7.108687400817871 67.11147308349609 4.917825222015381 61.93170166015625 C 2.649924993515015 56.56977462768555 1.5 50.87312316894531 1.5 45 C 1.5 39.12687683105469 2.649924993515015 33.43022537231445 4.917825222015381 28.06830024719238 C 7.108687400817871 22.88852500915527 10.24541282653809 18.23629951477051 14.2408504486084 14.2408504486084 C 18.23629951477051 10.24541282653809 22.88852500915527 7.108687400817871 28.06830024719238 4.917825222015381 C 33.43022537231445 2.649924993515015 39.12687683105469 1.5 45 1.5 C 50.87312316894531 1.5 56.56977462768555 2.649924993515015 61.93170166015625 4.917825222015381 C 67.11147308349609 7.108687400817871 71.76370239257812 10.24541282653809 75.75914764404297 14.2408504486084 C 79.75458526611328 18.23629951477051 82.89131164550781 22.88852500915527 85.08217620849609 28.06830024719238 C 87.35007476806641 33.43022537231445 88.5 39.12687683105469 88.5 45 C 88.5 50.87312316894531 87.35007476806641 56.56977462768555 85.08217620849609 61.93170166015625 C 82.89131164550781 67.11147308349609 79.75458526611328 71.76370239257812 75.75914764404297 75.75914764404297 C 71.76370239257812 79.75458526611328 67.11147308349609 82.89131164550781 61.93170166015625 85.08217620849609 C 56.56977462768555 87.35007476806641 50.87312316894531 88.5 45 88.5 Z" stroke="none"/>
          <path d="M 45 3 C 39.32871246337891 3 33.82865524291992 4.110054016113281 28.65262985229492 6.299339294433594 C 23.65165710449219 8.414573669433594 19.15968322753906 11.44334411621094 15.301513671875 15.301513671875 C 11.44334411621094 19.15968322753906 8.414573669433594 23.65165710449219 6.299339294433594 28.65262985229492 C 4.110054016113281 33.82865524291992 3 39.32871246337891 3 45 C 3 50.67128753662109 4.110054016113281 56.17134475708008 6.299339294433594 61.34737396240234 C 8.414573669433594 66.34834289550781 11.44334411621094 70.84031677246094 15.301513671875 74.698486328125 C 19.15968322753906 78.55665588378906 23.65165710449219 81.58542633056641 28.65262985229492 83.70066070556641 C 33.82865524291992 85.88994598388672 39.32871246337891 87 45 87 C 50.67128753662109 87 56.17134475708008 85.88994598388672 61.34737396240234 83.70066070556641 C 66.34834289550781 81.58542633056641 70.84031677246094 78.55665588378906 74.698486328125 74.698486328125 C 78.55665588378906 70.84031677246094 81.58542633056641 66.34834289550781 83.70066070556641 61.34737396240234 C 85.88994598388672 56.17134475708008 87 50.67128753662109 87 45 C 87 39.32871246337891 85.88994598388672 33.82865524291992 83.70066070556641 28.65262985229492 C 81.58542633056641 23.65165710449219 78.55665588378906 19.15968322753906 74.698486328125 15.301513671875 C 70.84031677246094 11.44334411621094 66.34834289550781 8.414573669433594 61.34737396240234 6.299339294433594 C 56.17134475708008 4.110054016113281 50.67128753662109 3 45 3 M 45 0 C 69.85281372070312 0 90 20.14718627929688 90 45 C 90 69.85281372070312 69.85281372070312 90 45 90 C 20.14718627929688 90 0 69.85281372070312 0 45 C 0 20.14718627929688 20.14718627929688 0 45 0 Z" stroke="none" fill="#2a5673"/>
        </g>
      </g>
    </g>
    <g id="_020-math_book" data-name="020-math book" transform="translate(695.768 719.901)">
      <path id="Trazado_983077" data-name="Trazado 983077" d="M111.659,450.661H72.364a2.234,2.234,0,0,1-2.234-2.234v-2.3a2.234,2.234,0,0,1,2.234-2.234h39.294Z" transform="translate(-6.662 -394.301)" fill="#e5ecf1"/>
      <path id="Trazado_983078" data-name="Trazado 983078" d="M72.387,443.89a2.257,2.257,0,0,0-2.257,2.257v1.806a2.257,2.257,0,0,1,2.257-2.257h39.272V443.89Z" transform="translate(-6.662 -394.301)" fill="#c2d0da"/>
      <path id="Trazado_983079" data-name="Trazado 983079" d="M72.387,7.5A2.257,2.257,0,0,0,70.13,9.757V58.508a2.257,2.257,0,0,1,2.257-2.257h39.272V7.5Z" transform="translate(-6.662 -6.662)" fill="#fc8086"/>
      <path id="Trazado_983080" data-name="Trazado 983080" d="M109.176,7.5V52.414a1.129,1.129,0,0,1-1.129,1.129H72.387A2.257,2.257,0,0,0,70.13,55.8v2.708a2.257,2.257,0,0,1,2.257-2.257h39.272V7.5Z" transform="translate(-6.662 -6.662)" fill="#fa4954"/>
      <path id="Trazado_983081" data-name="Trazado 983081" d="M130.74,68.11h27.987v15.8H130.74Z" transform="translate(-60.501 -60.501)" fill="#fcdd2e"/>
      <path id="Trazado_983082" data-name="Trazado 983082" d="M152.9,77.247v-15.8a.838.838,0,0,0-.838-.838H124.078a.838.838,0,0,0-.838.838v15.8a.838.838,0,0,0,.838.838h27.987A.838.838,0,0,0,152.9,77.247Zm-1.676-.838H124.916V62.286h26.311Z" transform="translate(-53.839 -53.839)"/>
      <path id="Trazado_983083" data-name="Trazado 983083" d="M105,245.75a.838.838,0,0,0-.838.838v20.459H65.725a3.075,3.075,0,0,0-1.419.345v-9.6a.838.838,0,0,0-1.676,0V272.4a3.1,3.1,0,0,0,3.095,3.095H105a.838.838,0,0,0,.838-.838V246.588A.838.838,0,0,0,105,245.75ZM65.725,273.818a1.421,1.421,0,0,1-1.419-1.419v-2.257a1.421,1.421,0,0,1,1.419-1.419h38.434v1.71H67.3a.838.838,0,0,0,0,1.676h36.854v1.71Z" transform="translate(0 -218.296)"/>
      <path id="Trazado_983084" data-name="Trazado 983084" d="M105,0H65.725A3.1,3.1,0,0,0,62.63,3.095v32.5a.838.838,0,0,0,1.676,0V3.095a1.421,1.421,0,0,1,1.419-1.419h38.434V24.368a.838.838,0,1,0,1.676,0V.838A.838.838,0,0,0,105,0Z" transform="translate(0 0)"/>
      <path id="Trazado_983085" data-name="Trazado 983085" d="M186.731,116.034a.838.838,0,0,0,1.167-.206l1.006-1.438,1.006,1.438a.838.838,0,1,0,1.373-.961l-1.356-1.938,1.356-1.938a.838.838,0,0,0-1.373-.961l-1.006,1.438-1.006-1.438a.838.838,0,0,0-1.373.961l1.356,1.938-1.356,1.938A.838.838,0,0,0,186.731,116.034Z" transform="translate(-109.92 -97.421)"/>
      <path id="Trazado_983086" data-name="Trazado 983086" d="M283.707,116.033a.838.838,0,0,0,1.167-.206l3.385-4.836a.838.838,0,0,0-1.373-.961l-1.006,1.438-1.006-1.438a.838.838,0,0,0-1.373.961l1.356,1.938-1.356,1.938A.838.838,0,0,0,283.707,116.033Z" transform="translate(-196.062 -97.421)"/>
      <path id="Trazado_983087" data-name="Trazado 983087" d="M235.7,119.537h.855v.855a.838.838,0,0,0,1.676,0v-.855h.855a.838.838,0,1,0,0-1.676h-.855v-.855a.838.838,0,0,0-1.676,0v.855H235.7a.838.838,0,1,0,0,1.676Z" transform="translate(-152.992 -103.19)"/>
      <path id="Trazado_983088" data-name="Trazado 983088" d="M151.424,106.371a.838.838,0,0,0,.592-1.43,4.579,4.579,0,0,1,0-6.476.838.838,0,1,0-1.185-1.185,6.254,6.254,0,0,0,0,8.845A.835.835,0,0,0,151.424,106.371Z" transform="translate(-76.721 -86.195)"/>
      <path id="Trazado_983089" data-name="Trazado 983089" d="M334.044,106.127a.838.838,0,0,0,1.185,0,6.254,6.254,0,0,0,0-8.845.838.838,0,1,0-1.185,1.185,4.579,4.579,0,0,1,0,6.476A.838.838,0,0,0,334.044,106.127Z" transform="translate(-240.875 -86.196)"/>
      <path id="Trazado_983090" data-name="Trazado 983090" d="M124.078,244.115h4.514a.838.838,0,0,0,0-1.676h-4.514a.838.838,0,1,0,0,1.676Z" transform="translate(-53.839 -215.355)"/>
      <path id="Trazado_983091" data-name="Trazado 983091" d="M212.135,242.439H200.85a.838.838,0,1,0,0,1.676h11.285a.838.838,0,1,0,0-1.676Z" transform="translate(-122.035 -215.355)"/>
      <path id="Trazado_983092" data-name="Trazado 983092" d="M124.078,284.522h4.514a.838.838,0,1,0,0-1.676h-4.514a.838.838,0,1,0,0,1.676Z" transform="translate(-53.839 -251.248)"/>
      <path id="Trazado_983093" data-name="Trazado 983093" d="M212.135,282.846H200.85a.838.838,0,1,0,0,1.676h11.285a.838.838,0,1,0,0-1.676Z" transform="translate(-122.035 -251.248)"/>
    </g>
  </g>
</svg>
