<svg xmlns="http://www.w3.org/2000/svg" xmlns:xlink="http://www.w3.org/1999/xlink" width="108" height="108" viewBox="0 0 108 108">
  <defs>
    <filter id="Trazado_904820" x="0" y="0" width="108" height="108" filterUnits="userSpaceOnUse">
      <feOffset dy="3" input="SourceAlpha"/>
      <feGaussianBlur stdDeviation="3" result="blur"/>
      <feFlood flood-opacity="0.161"/>
      <feComposite operator="in" in2="blur"/>
      <feComposite in="SourceGraphic"/>
    </filter>
  </defs>
  <g id="Grupo_1145304" data-name="Grupo 1145304" transform="translate(-201 -13299)">
    <g id="Grupo_1145247" data-name="Grupo 1145247" transform="translate(210 13305)">
      <g transform="matrix(1, 0, 0, 1, -9, -6)" filter="url(#Trazado_904820)">
        <g id="Trazado_904820-2" data-name="Trazado 904820" transform="translate(9 6)" fill="#ecf4fa">
          <path d="M 45 88.5 C 39.12687683105469 88.5 33.43022537231445 87.35007476806641 28.06830024719238 85.08217620849609 C 22.88852500915527 82.89131164550781 18.23629951477051 79.75458526611328 14.2408504486084 75.75914764404297 C 10.24541282653809 71.76370239257812 7.108687400817871 67.11147308349609 4.917825222015381 61.93170166015625 C 2.649924993515015 56.56977462768555 1.5 50.87312316894531 1.5 45 C 1.5 39.12687683105469 2.649924993515015 33.43022537231445 4.917825222015381 28.06830024719238 C 7.108687400817871 22.88852500915527 10.24541282653809 18.23629951477051 14.2408504486084 14.2408504486084 C 18.23629951477051 10.24541282653809 22.88852500915527 7.108687400817871 28.06830024719238 4.917825222015381 C 33.43022537231445 2.649924993515015 39.12687683105469 1.5 45 1.5 C 50.87312316894531 1.5 56.56977462768555 2.649924993515015 61.93170166015625 4.917825222015381 C 67.11147308349609 7.108687400817871 71.76370239257812 10.24541282653809 75.75914764404297 14.2408504486084 C 79.75458526611328 18.23629951477051 82.89131164550781 22.88852500915527 85.08217620849609 28.06830024719238 C 87.35007476806641 33.43022537231445 88.5 39.12687683105469 88.5 45 C 88.5 50.87312316894531 87.35007476806641 56.56977462768555 85.08217620849609 61.93170166015625 C 82.89131164550781 67.11147308349609 79.75458526611328 71.76370239257812 75.75914764404297 75.75914764404297 C 71.76370239257812 79.75458526611328 67.11147308349609 82.89131164550781 61.93170166015625 85.08217620849609 C 56.56977462768555 87.35007476806641 50.87312316894531 88.5 45 88.5 Z" stroke="none"/>
          <path d="M 45 3 C 39.32871246337891 3 33.82865524291992 4.110054016113281 28.65262985229492 6.299339294433594 C 23.65165710449219 8.414573669433594 19.15968322753906 11.44334411621094 15.301513671875 15.301513671875 C 11.44334411621094 19.15968322753906 8.414573669433594 23.65165710449219 6.299339294433594 28.65262985229492 C 4.110054016113281 33.82865524291992 3 39.32871246337891 3 45 C 3 50.67128753662109 4.110054016113281 56.17134475708008 6.299339294433594 61.34737396240234 C 8.414573669433594 66.34834289550781 11.44334411621094 70.84031677246094 15.301513671875 74.698486328125 C 19.15968322753906 78.55665588378906 23.65165710449219 81.58542633056641 28.65262985229492 83.70066070556641 C 33.82865524291992 85.88994598388672 39.32871246337891 87 45 87 C 50.67128753662109 87 56.17134475708008 85.88994598388672 61.34737396240234 83.70066070556641 C 66.34834289550781 81.58542633056641 70.84031677246094 78.55665588378906 74.698486328125 74.698486328125 C 78.55665588378906 70.84031677246094 81.58542633056641 66.34834289550781 83.70066070556641 61.34737396240234 C 85.88994598388672 56.17134475708008 87 50.67128753662109 87 45 C 87 39.32871246337891 85.88994598388672 33.82865524291992 83.70066070556641 28.65262985229492 C 81.58542633056641 23.65165710449219 78.55665588378906 19.15968322753906 74.698486328125 15.301513671875 C 70.84031677246094 11.44334411621094 66.34834289550781 8.414573669433594 61.34737396240234 6.299339294433594 C 56.17134475708008 4.110054016113281 50.67128753662109 3 45 3 M 45 0 C 69.85281372070312 0 90 20.14718627929688 90 45 C 90 69.85281372070312 69.85281372070312 90 45 90 C 20.14718627929688 90 0 69.85281372070312 0 45 C 0 20.14718627929688 20.14718627929688 0 45 0 Z" stroke="none" fill="#2a5673"/>
        </g>
      </g>
    </g>
    <g id="_023-blackboard" data-name="023-blackboard" transform="translate(227.959 13325.959)">
      <path id="Trazado_983094" data-name="Trazado 983094" d="M0,0H51.768V36.013H0Z" transform="translate(54.404 36.848) rotate(180)" fill="#f6c7f7"/>
      <path id="Trazado_983095" data-name="Trazado 983095" d="M73.068,7.5V40.024a1.125,1.125,0,0,1-1.125,1.125H23.663v2.363H75.431V7.5Z" transform="translate(-21.027 -6.664)" fill="#e248e8"/>
      <path id="Trazado_983096" data-name="Trazado 983096" d="M0,0H55.369V4.5H0Z" transform="translate(56.205 41.35) rotate(180)" fill="#8f818f"/>
      <path id="Trazado_983097" data-name="Trazado 983097" d="M481.266,330.752h2.588v4.5h-2.588Z" transform="translate(-427.649 -293.904)" fill="#786e79"/>
      <g id="Grupo_1145303" data-name="Grupo 1145303" transform="translate(12.427 41.35)">
        <path id="Trazado_983098" data-name="Trazado 983098" d="M314.04,371.158l5.627,14.855h-4.5l-5.627-14.855Z" transform="translate(-287.481 -371.158)" fill="#8f818f"/>
        <path id="Trazado_983099" data-name="Trazado 983099" d="M117.174,371.158l-5.627,14.855h4.5l5.627-14.855Z" transform="translate(-111.547 -371.158)" fill="#8f818f"/>
        <path id="Trazado_983100" data-name="Trazado 983100" d="M235.8,371.158h4.5v14.855h-4.5Z" transform="translate(-221.955 -371.158)" fill="#8f818f"/>
      </g>
      <path id="Trazado_983101" data-name="Trazado 983101" d="M155.168,373.184h4.5l.767-2.026h-4.5Z" transform="translate(-137.881 -329.808)" fill="#786e79"/>
      <path id="Trazado_983102" data-name="Trazado 983102" d="M235.8,371.158h4.5v2.026h-4.5Z" transform="translate(-209.527 -329.808)" fill="#786e79"/>
      <path id="Trazado_983103" data-name="Trazado 983103" d="M314.04,371.158h-4.5l.767,2.026h4.5Z" transform="translate(-275.054 -329.808)" fill="#786e79"/>
      <path id="Trazado_983104" data-name="Trazado 983104" d="M56.2,36.013H55.24V.836A.836.836,0,0,0,54.4,0H11.029a.836.836,0,0,0,0,1.671H53.569V36.013h-4.4a.836.836,0,1,0,0,1.671h6.2v2.831H1.671V37.684H45.266a.836.836,0,0,0,0-1.671H3.472V1.671H7.135A.836.836,0,0,0,7.135,0h-4.5A.836.836,0,0,0,1.8.836V36.013H.836A.836.836,0,0,0,0,36.848v4.5a.836.836,0,0,0,.836.836H16.844l-5.2,13.724a.835.835,0,0,0,.781,1.131h4.5a.836.836,0,0,0,.781-.54l5.423-14.316h2.3V56.2a.836.836,0,0,0,.836.836h4.5a.836.836,0,0,0,.836-.836V42.185h2.3L39.33,56.5a.835.835,0,0,0,.781.54h4.5a.836.836,0,0,0,.758-1.188L40.2,42.185H56.2a.836.836,0,0,0,.836-.836v-4.5a.835.835,0,0,0-.836-.835ZM16.352,55.369H13.637l4.994-13.184h2.715Zm13.584,0h-2.83V42.185h2.83Zm13.468,0H40.689L35.695,42.185h2.715Z"/>
      <path id="Trazado_983105" data-name="Trazado 983105" d="M136.221,121.738a.835.835,0,0,0,1.164-.205l1-1.434,1,1.434a.835.835,0,1,0,1.369-.958l-1.353-1.932,1.353-1.932a.836.836,0,1,0-1.369-.958l-1,1.434-1-1.434a.836.836,0,0,0-1.369.958l1.353,1.932-1.353,1.932A.836.836,0,0,0,136.221,121.738Z" transform="translate(-120.728 -102.539)"/>
      <path id="Trazado_983106" data-name="Trazado 983106" d="M233.2,121.737a.835.835,0,0,0,1.164-.205l3.376-4.823a.836.836,0,0,0-1.369-.958l-1,1.434-1-1.434a.836.836,0,0,0-1.369.958l1.353,1.932-1.353,1.932A.836.836,0,0,0,233.2,121.737Z" transform="translate(-206.901 -102.538)"/>
      <path id="Trazado_983107" data-name="Trazado 983107" d="M186.878,121.89a.836.836,0,0,0-.836.836v.853h-.853a.836.836,0,1,0,0,1.671h.853v.852a.836.836,0,1,0,1.671,0v-.852h.852a.836.836,0,1,0,0-1.671h-.852v-.853A.835.835,0,0,0,186.878,121.89Z" transform="translate(-163.816 -108.311)"/>
      <path id="Trazado_983108" data-name="Trazado 983108" d="M323.583,151.845h2.251a.836.836,0,0,0,0-1.671h-2.251a.836.836,0,1,0,0,1.671Z" transform="translate(-286.791 -133.444)"/>
      <path id="Trazado_983109" data-name="Trazado 983109" d="M323.583,125.581h2.251a.836.836,0,0,0,0-1.671h-2.251a.836.836,0,1,0,0,1.671Z" transform="translate(-286.791 -110.106)"/>
      <path id="Trazado_983110" data-name="Trazado 983110" d="M101.5,103a.835.835,0,0,0-1.182,0,6.237,6.237,0,0,0,0,8.821.836.836,0,0,0,1.182-1.182,4.566,4.566,0,0,1,0-6.458A.836.836,0,0,0,101.5,103Z" transform="translate(-87.519 -91.308)"/>
      <path id="Trazado_983111" data-name="Trazado 983111" d="M283.536,111.822a.836.836,0,0,0,1.182,0,6.237,6.237,0,0,0,0-8.821.836.836,0,0,0-1.182,1.182,4.566,4.566,0,0,1,0,6.458A.836.836,0,0,0,283.536,111.822Z" transform="translate(-251.73 -91.308)"/>
      <path id="Trazado_983112" data-name="Trazado 983112" d="M370.745,121.89a2.51,2.51,0,0,0,2.507-2.507V117.9a2.51,2.51,0,0,0-2.507-2.507h-.034A2.51,2.51,0,0,0,368.2,117.9v1.481a2.509,2.509,0,0,0,2.507,2.507Zm-.87-2.507V117.9a.836.836,0,0,1,.836-.836h.034a.836.836,0,0,1,.836.836v1.481a.836.836,0,0,1-.836.836h-.034A.836.836,0,0,1,369.875,119.383Z" transform="translate(-327.183 -102.54)"/>
      <path id="Trazado_983113" data-name="Trazado 983113" d="M104.834,207.654a.836.836,0,0,0,1.04.561c3.583-1.071,9.478-1.71,15.77-1.71s12.187.639,15.77,1.71a.836.836,0,1,0,.478-1.6c-3.73-1.114-9.8-1.78-16.248-1.78s-12.519.665-16.248,1.78A.836.836,0,0,0,104.834,207.654Z" transform="translate(-93.124 -182.015)"/>
    </g>
  </g>
</svg>
