<svg xmlns="http://www.w3.org/2000/svg" xmlns:xlink="http://www.w3.org/1999/xlink" width="108" height="108" viewBox="0 0 108 108">
  <defs>
    <filter id="Fondo" x="0" y="0" width="108" height="108" filterUnits="userSpaceOnUse">
      <feOffset dy="3" input="SourceAlpha"/>
      <feGaussianBlur stdDeviation="3" result="blur"/>
      <feFlood flood-opacity="0.161"/>
      <feComposite operator="in" in2="blur"/>
      <feComposite in="SourceGraphic"/>
    </filter>
  </defs>
  <g id="Icono" transform="translate(8.5 -689)">
    <g transform="matrix(1, 0, 0, 1, -8.5, 689)" filter="url(#Fondo)">
      <g id="Fondo-2" data-name="Fondo" transform="translate(9 6)" fill="#e6d567" stroke="#bca724" stroke-width="3">
        <circle cx="45" cy="45" r="45" stroke="none"/>
        <circle cx="45" cy="45" r="43.5" fill="none"/>
      </g>
    </g>
    <path id="filled-plus-2-math" d="M7.77,3A4.805,4.805,0,0,0,3,7.77V41.158a4.805,4.805,0,0,0,4.77,4.77H41.158a4.805,4.805,0,0,0,4.77-4.77V7.77A4.805,4.805,0,0,0,41.158,3Zm0,4.77H41.158V41.158H7.77Zm14.309,4.77v9.54H12.54v4.77h9.54v9.54h4.77v-9.54h9.54v-4.77h-9.54V12.54Z" transform="translate(20.638 714.934)" fill="#7b277e"/>
  </g>
</svg>
