<svg xmlns="http://www.w3.org/2000/svg" xmlns:xlink="http://www.w3.org/1999/xlink" width="108" height="108" viewBox="0 0 108 108">
  <defs>
    <filter id="Fondo" x="0" y="0" width="108" height="108" filterUnits="userSpaceOnUse">
      <feOffset dy="3" input="SourceAlpha"/>
      <feGaussianBlur stdDeviation="3" result="blur"/>
      <feFlood flood-opacity="0.161"/>
      <feComposite operator="in" in2="blur"/>
      <feComposite in="SourceGraphic"/>
    </filter>
  </defs>
  <g id="Icono" transform="translate(8.5 -689)">
    <g transform="matrix(1, 0, 0, 1, -8.5, 689)" filter="url(#Fondo)">
      <g id="Fondo-2" data-name="Fondo" transform="translate(9 6)" fill="#e6d567" stroke="#bca724" stroke-width="3">
        <circle cx="45" cy="45" r="45" stroke="none"/>
        <circle cx="45" cy="45" r="43.5" fill="none"/>
      </g>
    </g>
    <path id="filled-minus-2-math" d="M7.667,3A4.7,4.7,0,0,0,3,7.667V40.333A4.7,4.7,0,0,0,7.667,45H40.333A4.7,4.7,0,0,0,45,40.333V7.667A4.7,4.7,0,0,0,40.333,3Zm0,4.667H40.333V40.333H7.667Zm4.667,14v4.667H35.666V21.666Z" transform="translate(21.5 716)" fill="#7b277e"/>
  </g>
</svg>
